<svg width="20" height="22" viewBox="0 0 20 22" fill="none" xmlns="http://www.w3.org/2000/svg">
<path d="M9.99998 1.83337C4.94561 1.83337 0.833313 5.94567 0.833313 11C0.833313 12.5012 1.22872 13.9035 1.86993 15.1546L0.876282 18.7129C0.644845 19.5395 1.46211 20.3558 2.28888 20.1246L5.84902 19.131C7.09921 19.7713 8.49984 20.1667 9.99998 20.1667C15.0543 20.1667 19.1666 16.0544 19.1666 11C19.1666 5.94567 15.0543 1.83337 9.99998 1.83337ZM9.99998 3.20837C14.3112 3.20837 17.7916 6.68882 17.7916 11C17.7916 15.3113 14.3112 18.7917 9.99998 18.7917C8.62362 18.7917 7.3381 18.4334 6.21604 17.8079C6.05762 17.7195 5.87067 17.6973 5.69594 17.7461L2.31036 18.6914L3.25568 15.3077C3.30451 15.1329 3.28231 14.946 3.19391 14.7876C2.56749 13.6645 2.20831 12.3771 2.20831 11C2.20831 6.68882 5.68876 3.20837 9.99998 3.20837ZM9.98924 5.94853C9.80706 5.95137 9.63346 6.02641 9.50656 6.15717C9.37967 6.28792 9.30987 6.46369 9.31248 6.64587V12.1459C9.31119 12.237 9.32802 12.3274 9.36199 12.412C9.39597 12.4965 9.4464 12.5735 9.51037 12.6383C9.57434 12.7032 9.65056 12.7547 9.73461 12.7899C9.81867 12.8251 9.90887 12.8432 9.99998 12.8432C10.0911 12.8432 10.1813 12.8251 10.2653 12.7899C10.3494 12.7547 10.4256 12.7032 10.4896 12.6383C10.5536 12.5735 10.604 12.4965 10.638 12.412C10.6719 12.3274 10.6888 12.237 10.6875 12.1459V6.64587C10.6888 6.55386 10.6716 6.46251 10.637 6.37725C10.6024 6.29199 10.551 6.21455 10.4859 6.14952C10.4207 6.08448 10.3432 6.03319 10.2579 5.99866C10.1726 5.96414 10.0813 5.94709 9.98924 5.94853ZM9.99998 14.2084C9.75686 14.2084 9.52371 14.305 9.3518 14.4769C9.17989 14.6488 9.08331 14.8819 9.08331 15.125C9.08331 15.3682 9.17989 15.6013 9.3518 15.7732C9.52371 15.9451 9.75686 16.0417 9.99998 16.0417C10.2431 16.0417 10.4763 15.9451 10.6482 15.7732C10.8201 15.6013 10.9166 15.3682 10.9166 15.125C10.9166 14.8819 10.8201 14.6488 10.6482 14.4769C10.4763 14.305 10.2431 14.2084 9.99998 14.2084Z" fill="#070059"/>
</svg>
