<svg width="19" height="19" viewBox="0 0 19 19" fill="none" xmlns="http://www.w3.org/2000/svg">
<g clip-path="url(#clip0_4_177)">
<rect x="0.6" y="0.6" width="17.8" height="17.8" rx="8.9" stroke="#070059" stroke-width="1.2"/>
<path d="M12.9623 13.4583C8.74095 13.4643 5.53718 10.2221 5.54169 6.03766C5.54169 5.76439 5.76322 5.54163 6.03648 5.54163H7.34242C7.58762 5.54163 7.79592 5.72179 7.83193 5.96434C7.91823 6.54566 8.08748 7.11158 8.33453 7.64484L8.38538 7.75458C8.45607 7.90718 8.40815 8.08849 8.27129 8.18622C7.86686 8.47504 7.7123 9.05641 8.02737 9.51003C8.42275 10.0793 8.92114 10.5776 9.49026 10.9728C9.94386 11.2877 10.5251 11.1332 10.8139 10.7288C10.9117 10.5919 11.0932 10.544 11.2458 10.6147L11.3551 10.6653C11.8884 10.9123 12.4543 11.0816 13.0357 11.1679C13.2783 11.2039 13.4584 11.4122 13.4584 11.6574V12.9635C13.4584 13.2368 13.2356 13.4583 12.9623 13.4583Z" fill="#070059"/>
</g>
<defs>
<clipPath id="clip0_4_177">
<rect width="19" height="19" rx="9.5" fill="white"/>
</clipPath>
</defs>
</svg>
