<svg width="21" height="21" viewBox="0 0 21 21" fill="none" xmlns="http://www.w3.org/2000/svg">
<path d="M10.4786 1.74995C10.3387 1.75473 10.204 1.80413 10.0941 1.89094L3.87598 6.78975C3.08677 7.41171 2.625 8.36211 2.625 9.3669V17.7187C2.625 18.3153 3.12218 18.8125 3.71875 18.8125H8.09375C8.69032 18.8125 9.1875 18.3153 9.1875 17.7187V13.3437C9.1875 13.2146 9.27717 13.125 9.40625 13.125H11.5938C11.7228 13.125 11.8125 13.2146 11.8125 13.3437V17.7187C11.8125 18.3153 12.3097 18.8125 12.9062 18.8125H17.2812C17.8778 18.8125 18.375 18.3153 18.375 17.7187V9.3669C18.375 8.36211 17.9132 7.41171 17.124 6.78975L10.9059 1.89094C10.7845 1.79508 10.6332 1.74514 10.4786 1.74995ZM10.5 3.24189L16.3123 7.82112C16.7866 8.1949 17.0625 8.76343 17.0625 9.3669V17.5H13.125V13.3437C13.125 12.5059 12.4315 11.8125 11.5938 11.8125H9.40625C8.56846 11.8125 7.875 12.5059 7.875 13.3437V17.5H3.9375V9.3669C3.9375 8.76343 4.21345 8.1949 4.68774 7.82112L10.5 3.24189Z" fill="#070059"/>
</svg>
