<svg width="51" height="49" viewBox="0 0 51 49" fill="none" xmlns="http://www.w3.org/2000/svg">
<g id="logo">
<circle id="Ellipse 1" cx="24.5" cy="23.5" r="21.5" fill="url(#paint0_linear_3_155)"/>
<g id="Vector 1" filter="url(#filter0_d_3_155)">
<path d="M22.105 13.8303C24.8806 9.91019 32.0032 2.39255 38.2887 3.68282C44.5741 4.9731 45.0039 11.936 41.512 16.4385C38.0201 20.941 33.8566 25.1748 30.2976 27.6612C26.7385 30.1477 19.8218 29.1523 18.6131 21.4913" stroke="#070059" stroke-width="1.53571" stroke-linecap="round"/>
</g>
<g id="Vector 2" filter="url(#filter1_d_3_155)">
<path d="M25.1033 31.89C22.3277 35.8101 15.2051 43.3278 8.91962 42.0375C2.63418 40.7472 2.20441 33.7843 5.69632 29.2818C9.18823 24.7793 13.3517 20.5456 16.9107 18.0591C20.4698 15.5726 27.3865 16.568 28.5952 24.229" stroke="#070059" stroke-width="1.53571" stroke-linecap="round"/>
</g>
</g>
<defs>
<filter id="filter0_d_3_155" x="15.8452" y="0.767578" width="34.6193" height="34.8752" filterUnits="userSpaceOnUse" color-interpolation-filters="sRGB">
<feFlood flood-opacity="0" result="BackgroundImageFix"/>
<feColorMatrix in="SourceAlpha" type="matrix" values="0 0 0 0 0 0 0 0 0 0 0 0 0 0 0 0 0 0 127 0" result="hardAlpha"/>
<feOffset dx="2" dy="2"/>
<feGaussianBlur stdDeviation="2"/>
<feComposite in2="hardAlpha" operator="out"/>
<feColorMatrix type="matrix" values="0 0 0 0 1 0 0 0 0 1 0 0 0 0 1 0 0 0 0.55 0"/>
<feBlend mode="normal" in2="BackgroundImageFix" result="effect1_dropShadow_3_155"/>
<feBlend mode="normal" in="SourceGraphic" in2="effect1_dropShadow_3_155" result="shape"/>
</filter>
<filter id="filter1_d_3_155" x="0.743896" y="14.0775" width="34.6193" height="34.8752" filterUnits="userSpaceOnUse" color-interpolation-filters="sRGB">
<feFlood flood-opacity="0" result="BackgroundImageFix"/>
<feColorMatrix in="SourceAlpha" type="matrix" values="0 0 0 0 0 0 0 0 0 0 0 0 0 0 0 0 0 0 127 0" result="hardAlpha"/>
<feOffset dx="2" dy="2"/>
<feGaussianBlur stdDeviation="2"/>
<feComposite in2="hardAlpha" operator="out"/>
<feColorMatrix type="matrix" values="0 0 0 0 1 0 0 0 0 1 0 0 0 0 1 0 0 0 0.55 0"/>
<feBlend mode="normal" in2="BackgroundImageFix" result="effect1_dropShadow_3_155"/>
<feBlend mode="normal" in="SourceGraphic" in2="effect1_dropShadow_3_155" result="shape"/>
</filter>
<linearGradient id="paint0_linear_3_155" x1="3" y1="26.4563" x2="44.925" y2="19.6031" gradientUnits="userSpaceOnUse">
<stop stop-color="#24EDB5"/>
<stop offset="1" stop-color="#09DD85"/>
</linearGradient>
</defs>
</svg>
